# xmcd
#
# Track frame offsets:
#       150
#       14023
#       23250
#       34424
#       46578
#       55595
#       66103
#       75704
#       91945
#       102091
#       113488
#       127045
#       138390
#       151546
#       162370
#       173006
#
# Disc length: 2457 seconds
#
# Revision: 1
# Processed by: cddbd v1.5.2PL0 Copyright (c) Steve Scherf et al.
# Submitted via: FreeDbEdit v0.1
#
DISCID=b6099710
DTITLE=The Stanley Brothers - 16 Greatest Gospel Hits
DYEAR=1900
DGENRE=
TTITLE0=Rank Strangers
TTITLE1=Jordan
TTITLE2=Gathering Flowers for the Master's Bougquet
TTITLE3=Drinking From the Fountain
TTITLE4=John Three Sixteen
TTITLE5=Paul and Silas
TTITLE6=Who Will Sing for Me
TTITLE7=Thy Burdens Are Greater Than Mine
TTITLE8=Jocob's Vision
TTITLE9=Over the Glory Land
TTITLE10=White Dove
TTITLE11=Village Church Yard
TTITLE12=Shouting on the Hills of Glory
TTITLE13=Mother Left Me Her Bible
TTITLE14=I'll Fly Away
TTITLE15=Going Up Home
EXTD=
EXTT0=
EXTT1=
EXTT2=
EXTT3=
EXTT4=
EXTT5=
EXTT6=
EXTT7=
EXTT8=
EXTT9=
EXTT10=
EXTT11=
EXTT12=
EXTT13=
EXTT14=
EXTT15=
PLAYORDER=
